<svg xmlns="http://www.w3.org/2000/svg" width="108" viewBox="0 0 108 112.27" xmlns:xlink="http://www.w3.org/1999/xlink" height="112"><defs/><g id="group1" transform="translate(1.000000,1.000055)"><path fill-rule="nonzero" d="M.0,79.6L105.7,79.6L105.7,.0L.0,.0L.0,79.6zM4.1,75.5L101.6,75.5L101.6,4.1L4.1,4.1L4.1,75.5z" fill="#356eff" id="shape2" transform="translate(0.000000,30.713062)"/><path fill-rule="nonzero" d="M90.8,8.9C88.3,4.4,83.8,1.1,79.0,.2C75.2,-0.5,71.7,.4,69.0,2.7C65.9,5.2,60.9,10.9,54.2,19.5C51.2,23.4,48.6,26.9,46.9,29.2C45.0,27.1,42.1,23.9,38.9,20.4C31.4,12.4,25.9,7.2,22.6,5.0C19.7,3.0,16.1,2.4,12.5,3.4C7.8,4.8,3.6,8.5,1.5,13.1C-0.6,17.7,-0.5,23.3,1.7,27.7C3.4,31.1,6.2,33.4,9.6,34.2C13.5,35.2,21.0,35.7,31.9,36.0C35.4,36.0,38.7,36.0,41.3,36.0C42.6,36.0,43.7,36.0,44.5,36.0L44.5,107.6L48.6,107.6L48.6,35.7C51.0,35.5,56.5,35.0,62.5,34.4C73.4,33.2,80.8,31.9,84.6,30.6C87.9,29.5,90.5,27.0,91.9,23.4C93.7,18.9,93.2,13.3,90.8,8.9zM32.0,31.9C21.5,31.7,14.1,31.1,10.5,30.3C7.7,29.6,6.1,27.5,5.3,25.9C3.7,22.6,3.7,18.3,5.2,14.7C6.8,11.2,10.1,8.3,13.6,7.4C14.3,7.2,15.2,7.0,16.1,7.0C17.4,7.0,18.9,7.3,20.3,8.3C23.3,10.4,28.7,15.5,35.9,23.2C39.1,26.6,42.0,29.9,43.9,32.0C41.1,32.0,36.7,32.0,32.0,31.9zM88.1,21.9C87.5,23.6,86.1,25.9,83.3,26.8C79.9,28.0,72.5,29.2,62.1,30.3C57.4,30.8,53.1,31.2,50.3,31.5C51.9,29.2,54.5,25.7,57.4,22.0C63.9,13.7,68.8,8.1,71.6,5.8C73.2,4.5,74.9,4.1,76.5,4.1C77.1,4.1,77.7,4.1,78.2,4.2C81.8,4.9,85.3,7.5,87.2,10.8C89.1,14.2,89.4,18.5,88.1,21.9z" fill="#ffbe0a" id="shape3" transform="translate(6.275090,-0.000055)"/></g></svg>